<?xml version="1.0" encoding="utf-8"?>
<!-- Generator: Adobe Illustrator 14.0.0, SVG Export Plug-In . SVG Version: 6.00 Build 43363)  -->
<!DOCTYPE svg PUBLIC "-//W3C//DTD SVG 1.1//EN" "http://www.w3.org/Graphics/SVG/1.1/DTD/svg11.dtd">
<svg version="1.1" xmlns="http://www.w3.org/2000/svg" xmlns:xlink="http://www.w3.org/1999/xlink" x="0px" y="0px" width="140px"
	 height="33.444px" viewBox="200.005 47.745 140 33.444" enable-background="new 200.005 47.745 140 33.444" xml:space="preserve">
<g id="Layer_2">
	<path fill="#FFFFFF" d="M340.005,79.115c0,1.146-0.929,2.074-2.074,2.074H202.08c-1.146,0-2.074-0.929-2.074-2.074V49.819
		c0-1.146,0.928-2.074,2.074-2.074h135.852c1.146,0,2.074,0.928,2.074,2.074V79.115z"/>
</g>
<g id="svg3452" xmlns:inkscape="http://www.inkscape.org/namespaces/inkscape" sodipodi:docname="asciibinder_web_logo.svg" inkscape:version="0.91 r13725" xmlns:svg="http://www.w3.org/2000/svg" xmlns:sodipodi="http://sodipodi.sourceforge.net/DTD/sodipodi-0.dtd" xmlns:dc="http://purl.org/dc/elements/1.1/" xmlns:cc="http://creativecommons.org/ns#" xmlns:rdf="http://www.w3.org/1999/02/22-rdf-syntax-ns#">
	
		<sodipodi:namedview  id="base" inkscape:window-maximized="1" inkscape:window-y="0" inkscape:window-x="1920" inkscape:window-height="1409" inkscape:window-width="2560" fit-margin-bottom="3" fit-margin-right="4" fit-margin-left="4" fit-margin-top="4" showgrid="false" inkscape:current-layer="layer1" inkscape:document-units="px" inkscape:cy="-21.169069" inkscape:cx="326.39545" inkscape:zoom="1.1545455" inkscape:pageshadow="2" inkscape:pageopacity="0.0" borderopacity="1.0" bordercolor="#666666" pagecolor="#ffffff">
		</sodipodi:namedview>
	<g id="layer1" transform="translate(-45.651797,-348.92496)" inkscape:groupmode="layer" inkscape:label="Layer 1">
		<g id="g4305" transform="matrix(1.1624734,0,0,1.1624734,1406.9902,-264.01854)">
			<path id="path4231" inkscape:connector-curvature="0" d="M-958.525,587.977c0.063,0.156,0.22,0.251,0.361,0.251
				c0.047,0,0.079-0.016,0.142-0.016c0.188-0.079,0.282-0.314,0.204-0.502l-3.815-10.189c-0.047-0.141-0.204-0.236-0.377-0.236
				c-0.157,0-0.314,0.094-0.377,0.236l-3.815,10.189c-0.078,0.188,0.031,0.423,0.22,0.502c0.047,0,0.11,0.016,0.141,0.016
				c0.157,0,0.298-0.095,0.361-0.251l0.973-2.591h5.008L-958.525,587.977L-958.525,587.977z M-961.994,578.713l2.213,5.903h-4.443
				L-961.994,578.713z"/>
			<path id="path4233" inkscape:connector-curvature="0" d="M-956.021,587.128c0.628,0.502,1.602,1.084,2.842,1.1
				c0.754,0,1.382-0.22,1.915-0.612c0.518-0.393,0.879-0.911,0.879-1.554c0-0.644-0.361-1.241-0.864-1.57
				c-0.534-0.298-1.13-0.518-1.868-0.628h-0.031c-0.707-0.11-1.225-0.298-1.57-0.533c-0.298-0.236-0.44-0.455-0.44-0.77
				s0.173-0.628,0.487-0.88c0.33-0.266,0.832-0.439,1.46-0.439c0.754,0,1.319,0.392,1.884,0.77c0.172,0.11,0.408,0.063,0.518-0.11
				s0.063-0.408-0.11-0.534c-0.596-0.377-1.303-0.832-2.292-0.832c-0.785,0-1.429,0.204-1.884,0.518
				c-0.487,0.361-0.832,0.895-0.832,1.507c0,0.596,0.345,1.099,0.832,1.381c0.44,0.314,1.052,0.472,1.743,0.597l0.031,0.016
				c0.754,0.125,1.303,0.313,1.633,0.565c0.392,0.33,0.533,0.581,0.549,0.943c0,0.345-0.204,0.691-0.581,0.942
				c-0.346,0.282-0.864,0.471-1.46,0.471c-0.974,0-1.821-0.503-2.355-0.896c-0.173-0.141-0.408-0.11-0.534,0.047
				C-956.194,586.783-956.178,586.987-956.021,587.128L-956.021,587.128z"/>
			<path id="path4235" inkscape:connector-curvature="0" d="M-944.4,588.228L-944.4,588.228c0.91,0,1.774-0.314,2.417-0.817
				c0.189-0.142,0.22-0.377,0.079-0.549c-0.126-0.141-0.345-0.188-0.518-0.063c-0.549,0.423-1.24,0.675-1.978,0.675
				c-1.79,0-3.203-1.382-3.203-3.109c0-1.695,1.413-3.093,3.203-3.093c0.738,0,1.429,0.251,1.978,0.691
				c0.173,0.125,0.392,0.078,0.518-0.063c0.141-0.173,0.11-0.408-0.047-0.518c-0.675-0.533-1.539-0.848-2.449-0.848
				c-2.198,0-3.956,1.696-3.956,3.831C-948.356,586.532-946.598,588.228-944.4,588.228L-944.4,588.228z"/>
			<path id="path4237" inkscape:connector-curvature="0" d="M-938.837,587.851c0,0.204,0.172,0.377,0.377,0.377
				c0.219,0,0.392-0.173,0.392-0.377v-6.939c0-0.22-0.173-0.377-0.392-0.377c-0.205,0-0.377,0.157-0.377,0.377V587.851z
				 M-938.837,578.76c0,0.22,0.172,0.408,0.377,0.408c0.219,0,0.392-0.188,0.392-0.408V578.4c0-0.204-0.173-0.377-0.392-0.377
				c-0.205,0-0.377,0.173-0.377,0.377V578.76z"/>
			<path id="path4239" inkscape:connector-curvature="0" d="M-934.422,587.851c0,0.204,0.173,0.377,0.377,0.377
				c0.219,0,0.392-0.173,0.392-0.377v-6.939c0-0.22-0.173-0.377-0.392-0.377c-0.204,0-0.377,0.157-0.377,0.377V587.851z
				 M-934.422,578.76c0,0.22,0.173,0.408,0.377,0.408c0.219,0,0.392-0.188,0.392-0.408V578.4c0-0.204-0.173-0.377-0.392-0.377
				c-0.204,0-0.377,0.173-0.377,0.377V578.76z"/>
			<path id="path4241" inkscape:connector-curvature="0" fill="#FF580D" d="M-928.986,588.228c0.016,0,0.016-0.016,0.047-0.016
				c0,0,0,0.016,0.016,0.016h2.779c1.852,0,3.359-1.507,3.359-3.375c0-1.194-0.643-2.246-1.585-2.842
				c0.376-0.502,0.596-1.115,0.596-1.79c0-1.649-1.334-2.983-2.982-2.983h-2.167c-0.016,0-0.016,0-0.016,0c-0.031,0-0.031,0-0.047,0
				c-0.471,0-0.864,0.377-0.864,0.864v9.262C-929.849,587.836-929.457,588.228-928.986,588.228z M-928.106,578.98h1.35
				c0.691,0,1.24,0.549,1.24,1.24c0,0.691-0.549,1.271-1.24,1.271h-1.35V578.98L-928.106,578.98z M-928.106,583.235h1.962
				c0.895,0.016,1.616,0.722,1.616,1.618c0,0.91-0.722,1.616-1.616,1.632h-1.962V583.235z"/>
			<path id="path4243" inkscape:connector-curvature="0" fill="#FF580D" d="M-919.621,580.393c-0.471,0-0.848,0.361-0.848,0.864
				v6.122c0,0.471,0.376,0.849,0.848,0.849c0.487,0,0.849-0.377,0.849-0.849v-6.122
				C-918.772,580.755-919.133,580.393-919.621,580.393z M-918.772,578.086c0-0.471-0.361-0.848-0.849-0.848
				c-0.471,0-0.848,0.377-0.848,0.848v0.329c0,0.471,0.376,0.864,0.848,0.864c0.487,0,0.849-0.392,0.849-0.864V578.086z"/>
			<path id="path4245" inkscape:connector-curvature="0" fill="#FF580D" d="M-912.803,580.378c-0.612,0-1.194,0.189-1.664,0.487
				c-0.141-0.298-0.44-0.487-0.77-0.487c-0.471,0-0.832,0.377-0.832,0.832v2.433l0,0v3.753c0,0.455,0.36,0.833,0.832,0.833
				c0.408,0,0.754-0.298,0.832-0.675c0.032-0.063,0.032-0.11,0.032-0.157v-3.753c0-0.879,0.691-1.585,1.57-1.585
				c0.895,0,1.632,0.706,1.632,1.585v3.753c0,0.455,0.392,0.833,0.833,0.833c0.454,0,0.816-0.377,0.816-0.833v-3.753
				C-909.522,581.87-910.981,580.378-912.803,580.378L-912.803,580.378z"/>
			<path id="path4247" inkscape:connector-curvature="0" fill="#FF580D" d="M-899.635,584.318L-899.635,584.318
				c0-0.016,0-0.016,0-0.016v-6.217c0-0.456-0.377-0.848-0.848-0.848c-0.487,0-0.864,0.392-0.864,0.848v2.951
				c-0.581-0.408-1.334-0.659-2.104-0.659c-2.12,0-3.815,1.79-3.815,3.941c0,2.12,1.695,3.91,3.815,3.91
				c0.785,0,1.539-0.267,2.135-0.675c0.079,0.377,0.408,0.675,0.833,0.675c0.47,0,0.848-0.392,0.848-0.849V584.318z
				 M-901.974,582.733c0.392,0.392,0.628,0.958,0.628,1.585c0,0.596-0.235,1.162-0.628,1.554c-0.392,0.408-0.895,0.644-1.476,0.644
				c-0.565,0-1.083-0.235-1.475-0.644c-0.392-0.392-0.628-0.958-0.628-1.554c0-0.628,0.236-1.193,0.628-1.585
				c0.392-0.408,0.91-0.644,1.475-0.644C-902.869,582.089-902.366,582.325-901.974,582.733z"/>
			<path id="path4249" inkscape:connector-curvature="0" fill="#FF580D" d="M-893.347,588.228c1.115,0,2.041-0.33,2.81-1.037
				c0.361-0.329,0.204-0.801,0-1.021c-0.204-0.25-0.848-0.298-1.178,0.047c-0.392,0.298-1.067,0.439-1.632,0.392
				c-0.549-0.047-1.178-0.329-1.507-0.706c-0.283-0.266-0.455-0.675-0.534-1.036h4.993c0.44,0,0.77-0.251,0.817-0.628
				c0.016-0.032,0.016-0.11,0.016-0.141l0,0l0,0c0-0.032,0-0.064,0-0.079c-0.125-2.12-1.743-3.643-3.784-3.643
				c-2.151,0-3.815,1.79-3.831,3.925C-897.161,586.438-895.497,588.212-893.347,588.228L-893.347,588.228z M-893.347,581.87
				c1.366,0.109,2.167,1.036,2.324,1.664h-4.443C-895.341,582.889-894.681,581.932-893.347,581.87z"/>
			<path id="path4251" inkscape:connector-curvature="0" fill="#FF580D" d="M-883.395,580.393c-0.785-0.016-1.459,0.267-1.978,0.612
				c-0.109,0.079-0.235,0.204-0.329,0.314v-0.11c0-0.455-0.392-0.816-0.864-0.816c-0.455,0-0.832,0.361-0.832,0.816v6.186
				c0,0.455,0.376,0.833,0.832,0.833c0.471,0,0.864-0.377,0.864-0.833v-2.983c0.079-0.219,0.267-0.817,0.643-1.319
				c0.189-0.298,0.424-0.565,0.722-0.754c0.267-0.204,0.581-0.298,0.942-0.298c0.471,0,0.833-0.392,0.833-0.832
				C-882.563,580.755-882.924,580.393-883.395,580.393L-883.395,580.393z"/>
		</g>
		<path id="path4327" inkscape:connector-curvature="0" fill="#FF580D" d="M255.854,399.778c-3.088,0-5.575,2.486-5.575,5.575v16.08
			c0,3.089,2.486,5.575,5.575,5.575h16.08c3.088,0,5.575-2.486,5.575-5.575v-16.08c0-3.088-2.487-5.575-5.575-5.575H255.854z
			 M258.238,403.025c1.247,0,2.494,0.475,3.442,1.424c0.949,0.948,1.341,2.118,1.487,3.443s0.065,2.822,0.065,4.534
			c0,0.19-0.155,0.345-0.345,0.345l0,0c-2.225,0-3.748,0.07-4.978-0.068s-2.179-0.514-3.103-1.358
			c-1.995-1.823-1.909-4.997-0.011-6.895C255.745,403.499,256.992,403.025,258.238,403.025L258.238,403.025z M269.549,403.025
			c1.247,0,2.493,0.475,3.442,1.424c1.898,1.898,1.983,5.071-0.011,6.895c-0.924,0.845-1.873,1.22-3.103,1.358
			s-2.753,0.068-4.978,0.068c-0.191,0-0.345-0.154-0.345-0.345c0-1.712-0.082-3.209,0.065-4.534s0.539-2.495,1.487-3.443
			C267.056,403.499,268.303,403.025,269.549,403.025L269.549,403.025z M258.238,403.711c-1.068,0-2.137,0.409-2.955,1.226
			c-1.634,1.634-1.704,4.35-0.011,5.897c0.832,0.76,1.576,1.054,2.715,1.182c1.071,0.12,2.533,0.072,4.559,0.066
			c0.008-1.578,0.063-2.964-0.064-4.115c-0.137-1.239-0.471-2.212-1.289-3.03C260.376,404.119,259.307,403.711,258.238,403.711
			L258.238,403.711z M269.549,403.711c-1.069,0-2.137,0.409-2.955,1.226c-0.818,0.818-1.152,1.792-1.289,3.03
			c-0.127,1.151-0.073,2.538-0.064,4.115c2.025,0.006,3.487,0.054,4.559-0.066c1.139-0.128,1.883-0.422,2.715-1.182
			c1.693-1.547,1.623-4.263-0.011-5.897C271.686,404.119,270.618,403.711,269.549,403.711L269.549,403.711z M257.881,413.996h5.03
			c0.19,0,0.345,0.154,0.345,0.345v4.712c0.004,0.19-0.147,0.348-0.338,0.352c-0.19,0.004-0.348-0.147-0.352-0.338
			c0-0.005,0-0.009,0-0.014v-3.92l-7.975,7.975c-0.131,0.139-0.349,0.146-0.488,0.015c-0.138-0.131-0.145-0.349-0.014-0.487
			c0.005-0.006,0.009-0.01,0.014-0.015l7.934-7.934h-4.156c-0.191,0.004-0.348-0.147-0.353-0.338
			c-0.004-0.19,0.148-0.349,0.338-0.353C257.871,413.996,257.876,413.996,257.881,413.996z M267.761,413.997L267.761,413.997
			c0.812,0,1.501,0.017,2.116,0.086c1.23,0.139,2.179,0.514,3.103,1.358c1.995,1.824,1.909,4.996,0.011,6.895s-4.986,1.898-6.885,0
			c-0.949-0.948-1.34-2.118-1.487-3.442c-0.146-1.325-0.065-2.822-0.065-4.534c0-0.19,0.154-0.345,0.345-0.345
			C266.011,414.015,266.948,413.997,267.761,413.997L267.761,413.997z M267.761,414.689c-0.707,0-1.572,0.011-2.52,0.014
			c-0.009,1.577-0.063,2.964,0.064,4.115c0.137,1.238,0.471,2.213,1.289,3.03c1.635,1.635,4.275,1.635,5.909,0
			c1.634-1.634,1.703-4.35,0.011-5.896c-0.832-0.761-1.576-1.054-2.715-1.183C269.23,414.705,268.564,414.689,267.761,414.689
			L267.761,414.689L267.761,414.689z"/>
	</g>
</g>
</svg>
